<svg width="165" height="42" viewBox="0 0 165 42" fill="none" xmlns="http://www.w3.org/2000/svg">
<path d="M24.51 26.25C21.09 29.94 17.22 33.21 12.96 35.88C10.98 37.11 8.7 38.67 6.3 38.85C4.86 38.97 4.44 38.46 4.32 37.05C4.2 35.61 4.29 34.17 4.47 32.76C5.16 27.57 7.26 22.44 9.81 17.88C12.24 13.5 15.48 8.79 19.68 5.91C20.31 5.49 20.97 5.1 21.69 4.8C21.93 4.71 22.32 4.5 22.59 4.5C23.1 4.44 23.04 4.47 23.16 4.98C23.46 6.21 23.19 7.65 23.01 8.88C22.47 11.97 21.42 14.91 19.95 17.67C19.41 18.72 21.93 20.91 22.62 19.62C24.24 16.5 25.32 13.2 25.8 9.72C26.16 7.2 26.07 4.5 23.94 2.76C21.39 0.689998 18.42 2.58 16.29 4.29C13.74 6.33 11.67 9 9.81 11.64C5.97 17.19 2.94 23.7 1.86 30.42C1.41 33.27 0.99 36.93 2.91 39.39C4.56 41.52 7.14 41.94 9.63 41.22C12.75 40.32 15.75 38.13 18.36 36.24C21.45 33.99 24.3 31.44 26.88 28.65C27.78 27.69 25.38 25.32 24.51 26.25ZM45.773 24.96C43.853 26.7 38.423 30.78 35.333 31.14C35.303 31.14 35.273 31.14 35.213 31.14C35.363 30.36 35.513 29.61 35.783 28.83C36.053 28.05 36.323 27.3 36.443 26.49C36.503 26.34 36.503 26.19 36.473 26.01C36.443 25.47 35.873 24.84 35.273 24.42C34.913 24.15 34.493 24 34.133 24.09C33.833 24.18 33.563 24.27 33.293 24.36C31.823 22.47 29.213 22.08 27.203 23.61C24.623 25.5 22.973 28.65 22.283 31.71C22.073 32.7 23.513 34.44 24.593 34.02C27.683 32.79 29.963 30.12 32.693 28.32C32.423 29.19 32.303 30.06 32.603 31.02C33.023 32.46 34.313 33.72 35.843 33.9C37.373 34.08 38.873 33.27 40.103 32.52C42.833 30.9 45.263 28.77 47.603 26.67C48.533 25.8 46.763 24.06 45.773 24.96ZM27.263 28.38C27.293 28.35 27.293 28.32 27.323 28.29C27.863 27.57 28.493 26.88 29.183 26.31C29.603 25.92 30.113 25.53 30.683 25.41C30.863 25.38 31.073 25.35 31.283 25.29C31.283 25.32 31.283 25.32 31.313 25.32C29.873 26.19 28.583 27.3 27.263 28.38ZM55.6233 24.78C53.8533 21.78 51.3333 22.32 48.9933 24.12C48.6333 22.98 46.7733 21.72 46.3833 22.83C45.2733 25.86 44.0433 28.83 42.9033 31.86C42.4833 32.97 44.9433 35.13 45.5433 33.78C46.4133 31.89 47.6133 30.18 49.0533 28.65C49.6833 27.96 50.3733 27.3 51.1233 26.73C51.5133 26.43 53.0133 25.32 53.6733 25.32C54.0633 25.77 54.5733 26.16 55.1433 26.1C55.8333 26.04 55.9533 25.35 55.6233 24.78ZM104.523 10.98C103.713 18.24 100.653 25.92 95.403 31.11C94.713 31.83 93.903 32.22 93.153 32.82C93.123 32.85 93.123 32.88 93.093 32.91C93.093 32.88 93.093 32.79 93.093 32.73C93.063 32.43 93.093 32.13 93.093 31.8C93.213 30.09 93.423 28.38 93.633 26.67C94.053 23.07 94.623 19.47 95.673 15.99C96.093 15.21 94.833 13.8 93.843 13.68C93.483 13.59 93.153 13.68 93.033 14.07C90.543 18.66 87.753 23.04 84.633 27.24C83.133 29.28 81.513 31.29 79.863 33.21C79.113 34.05 78.363 34.98 77.553 35.76C77.943 34.2 78.513 32.67 79.113 31.17C80.223 28.41 81.393 25.62 82.533 22.86C83.673 20.04 84.813 17.25 85.983 14.46C86.583 12.96 87.213 11.46 87.813 9.96C88.233 8.91 88.713 7.86 88.623 6.72C88.443 4.89 86.733 2.97 84.783 3.09C82.683 3.24 80.223 5.22 78.633 6.45C74.913 9.27 70.863 13.56 71.403 18.6C71.493 19.38 72.093 20.13 72.813 20.46C73.263 20.7 74.223 20.79 74.133 19.98C73.653 15.57 77.193 11.88 80.403 9.3C81.183 8.67 82.023 8.07 82.893 7.53C83.763 6.96 84.933 6.6 85.743 5.97C85.803 5.97 85.833 5.97 85.863 5.97C85.863 6.03 85.863 6.09 85.863 6.15C85.773 6.6 85.563 7.02 85.383 7.47C84.903 8.67 84.393 9.9 83.913 11.1C82.023 15.69 80.133 20.25 78.273 24.84C76.503 29.13 74.403 33.42 74.223 38.1C74.193 39.09 75.573 40.41 76.563 40.14C78.843 39.51 80.373 37.71 81.873 36C83.673 33.93 85.383 31.8 87.033 29.61C88.443 27.69 89.793 25.74 91.083 23.76C90.933 24.93 90.813 26.07 90.693 27.24C90.483 29.07 90.033 31.14 90.663 32.91C91.233 34.5 92.823 36 94.593 35.61C96.633 35.19 98.313 33.03 99.543 31.5C100.953 29.7 102.183 27.75 103.263 25.74C105.423 21.57 106.743 17.04 107.253 12.36C107.403 11.19 104.733 9.33 104.523 10.98ZM128.009 24.96C126.089 26.7 120.659 30.78 117.569 31.14C117.539 31.14 117.509 31.14 117.449 31.14C117.599 30.36 117.749 29.61 118.019 28.83C118.289 28.05 118.559 27.3 118.679 26.49C118.739 26.34 118.739 26.19 118.709 26.01C118.679 25.47 118.109 24.84 117.509 24.42C117.149 24.15 116.729 24 116.369 24.09C116.069 24.18 115.799 24.27 115.529 24.36C114.059 22.47 111.449 22.08 109.439 23.61C106.859 25.5 105.209 28.65 104.519 31.71C104.309 32.7 105.749 34.44 106.829 34.02C109.919 32.79 112.199 30.12 114.929 28.32C114.659 29.19 114.539 30.06 114.839 31.02C115.259 32.46 116.549 33.72 118.079 33.9C119.609 34.08 121.109 33.27 122.339 32.52C125.069 30.9 127.499 28.77 129.839 26.67C130.769 25.8 128.999 24.06 128.009 24.96ZM109.499 28.38C109.529 28.35 109.529 28.32 109.559 28.29C110.099 27.57 110.729 26.88 111.419 26.31C111.839 25.92 112.349 25.53 112.919 25.41C113.099 25.38 113.309 25.35 113.519 25.29C113.519 25.32 113.519 25.32 113.549 25.32C112.109 26.19 110.819 27.3 109.499 28.38ZM137.74 24.66C136.66 25.08 134.2 25.74 131.65 26.94C131.38 26.67 131.14 26.4 130.9 26.1C130.27 25.35 129.79 23.46 131.44 23.58C132.22 23.64 132.16 22.74 131.92 22.26C131.59 21.57 130.84 20.91 130.06 20.88C127.48 20.67 127.12 23.55 128.02 25.38C128.56 26.43 129.46 27.15 130.15 28.05C127.3 30.36 125.32 33.24 128.11 35.55C130.72 37.71 133.21 34.5 133.54 32.01C133.66 31.23 133.6 30.48 133.36 29.76C134.98 28.53 136.75 27.54 138.64 26.79C139.96 26.28 138.91 24.21 137.74 24.66ZM162.015 24.87C159.075 26.52 155.475 28.08 152.145 29.1C152.505 27.99 153.045 26.91 153.285 25.77C153.585 24.33 153.525 22.86 152.385 21.78C150.945 20.43 149.595 21.09 148.095 21.96C145.065 23.73 142.245 25.8 139.665 28.17C140.055 27.06 140.475 25.95 140.895 24.87C141.855 22.35 142.935 19.89 144.075 17.49C146.385 12.63 149.025 7.98 152.025 3.51C152.745 2.37 150.285 0.12 149.625 1.11C146.115 6.42 142.995 12 140.385 17.82C139.095 20.67 137.955 23.58 136.905 26.55C136.065 28.98 135.735 31.17 137.955 32.91C138.285 33.18 139.095 33.57 139.485 33.15C142.635 29.64 146.385 26.64 150.525 24.33C150.315 25.05 150.045 25.71 149.775 26.4C149.445 27.36 149.055 28.41 149.145 29.46C149.355 31.71 151.575 32.61 153.495 31.98C156.915 30.84 160.125 28.56 163.215 26.79C164.505 26.07 163.035 24.27 162.015 24.87Z" fill="white"/>
</svg>
