<svg width="23" height="20" viewBox="0 0 23 20" fill="none" xmlns="http://www.w3.org/2000/svg">
<path fill-rule="evenodd" clip-rule="evenodd" d="M0.34082 1.70984C0.34082 0.997706 0.918116 0.42041 1.63025 0.42041H5.49853C6.07053 0.42041 6.57416 0.797246 6.73556 1.346L9.68689 11.3805H18.6755L19.9649 6.22283H11.9457C11.2335 6.22283 10.6562 5.64553 10.6562 4.9334C10.6562 4.22127 11.2335 3.64398 11.9457 3.64398H21.6164C22.0134 3.64398 22.3883 3.82691 22.6327 4.13987C22.877 4.45284 22.9636 4.86093 22.8673 5.24613L20.9331 12.9827C20.7896 13.5567 20.2739 13.9594 19.6822 13.9594H8.72209C8.15009 13.9594 7.64646 13.5826 7.48506 13.0338L4.53373 2.99926H1.63025C0.918116 2.99926 0.34082 2.42197 0.34082 1.70984ZM10.6562 17.183C10.6562 18.6072 9.50164 19.7618 8.07738 19.7618C6.65312 19.7618 5.49853 18.6072 5.49853 17.183C5.49853 15.7587 6.65312 14.6041 8.07738 14.6041C9.50164 14.6041 10.6562 15.7587 10.6562 17.183ZM19.6822 19.7618C21.1065 19.7618 22.2611 18.6072 22.2611 17.183C22.2611 15.7587 21.1065 14.6041 19.6822 14.6041C18.258 14.6041 17.1034 15.7587 17.1034 17.183C17.1034 18.6072 18.258 19.7618 19.6822 19.7618Z" fill="white"/>
</svg>
