<svg width="26" height="27" viewBox="0 0 26 27" fill="none" xmlns="http://www.w3.org/2000/svg">
<g clip-path="url(#clip0_4_248)">
<path d="M13 26.5C20.1797 26.5 26 20.6797 26 13.5C26 6.3203 20.1797 0.5 13 0.5C5.8203 0.5 0 6.3203 0 13.5C0 20.6797 5.8203 26.5 13 26.5Z" fill="white"/>
<path d="M16.2684 14.0088H13.9487V22.5071H10.4342V14.0088H8.7627V11.0222H10.4342V9.08949C10.4342 7.70741 11.0907 5.54321 13.98 5.54321L16.5834 5.5541V8.45314H14.6945C14.3846 8.45314 13.949 8.60794 13.949 9.26723V11.025H16.5755L16.2684 14.0088Z" fill="black"/>
</g>
<defs>
<clipPath id="clip0_4_248">
<rect width="26" height="26" fill="white" transform="translate(0 0.5)"/>
</clipPath>
</defs>
</svg>
