<svg width="16" height="17" viewBox="0 0 16 17" fill="none" xmlns="http://www.w3.org/2000/svg">
<path d="M12.1446 5.35201C12.6748 5.35201 13.1046 4.9222 13.1046 4.39201C13.1046 3.86181 12.6748 3.43201 12.1446 3.43201C11.6144 3.43201 11.1846 3.86181 11.1846 4.39201C11.1846 4.9222 11.6144 5.35201 12.1446 5.35201Z" fill="white"/>
<path d="M8 12.5C5.794 12.5 4 10.706 4 8.5C4 6.294 5.794 4.5 8 4.5C10.206 4.5 12 6.294 12 8.5C12 10.706 10.206 12.5 8 12.5ZM8 6.5C6.897 6.5 6 7.397 6 8.5C6 9.603 6.897 10.5 8 10.5C9.103 10.5 10 9.603 10 8.5C10 7.397 9.103 6.5 8 6.5Z" fill="white"/>
<path d="M12 16.5H4C1.944 16.5 0 14.556 0 12.5V4.5C0 2.444 1.944 0.5 4 0.5H12C14.056 0.5 16 2.444 16 4.5V12.5C16 14.556 14.056 16.5 12 16.5ZM4 2.5C3.065 2.5 2 3.565 2 4.5V12.5C2 13.453 3.047 14.5 4 14.5H12C12.935 14.5 14 13.435 14 12.5V4.5C14 3.565 12.935 2.5 12 2.5H4Z" fill="white"/>
</svg>
