<svg width="26" height="27" viewBox="0 0 26 27" fill="none" xmlns="http://www.w3.org/2000/svg">
<g clip-path="url(#clip0_4_252)">
<path d="M16.8742 7.41724H9.12502C7.88814 7.41724 6.88184 8.42354 6.88184 9.66042V17.4096C6.88184 18.6465 7.88814 19.6531 9.12502 19.6531H16.8742C18.1111 19.6531 19.1177 18.6468 19.1177 17.4096V9.66042C19.1177 8.42354 18.1114 7.41724 16.8742 7.41724ZM12.9996 17.5631C10.7787 17.5631 8.97179 15.7562 8.97179 13.535C8.97179 11.3141 10.7787 9.50719 12.9996 9.50719C15.2208 9.50719 17.0277 11.3141 17.0277 13.535C17.0277 15.7559 15.2205 17.5631 12.9996 17.5631ZM17.1572 10.34C16.6315 10.34 16.2039 9.91243 16.2039 9.38698C16.2039 8.86152 16.6315 8.43397 17.1572 8.43397C17.6827 8.43397 18.1102 8.86152 18.1102 9.38698C18.1102 9.91243 17.6827 10.34 17.1572 10.34Z" fill="white"/>
<path d="M12.9999 11.2092C11.7178 11.2092 10.6738 12.2526 10.6738 13.5347C10.6738 14.8173 11.7178 15.861 12.9999 15.861C14.2825 15.861 15.3256 14.8173 15.3256 13.5347C15.3256 12.2529 14.2822 11.2092 12.9999 11.2092Z" fill="white"/>
<path d="M13 0.5C5.82058 0.5 0 6.32058 0 13.5C0 20.6794 5.82058 26.5 13 26.5C20.1794 26.5 26 20.6794 26 13.5C26 6.32058 20.1794 0.5 13 0.5ZM20.8199 17.4096C20.8199 19.5853 19.0503 21.3549 16.8746 21.3549H9.1254C6.95 21.3549 5.18013 19.5853 5.18013 17.4096V9.66045C5.18013 7.48505 6.95 5.71518 9.1254 5.71518H16.8746C19.0503 5.71518 20.8199 7.48505 20.8199 9.66045V17.4096Z" fill="white"/>
</g>
<defs>
<clipPath id="clip0_4_252">
<rect width="26" height="26" fill="white" transform="translate(0 0.5)"/>
</clipPath>
</defs>
</svg>
