<svg width="26" height="27" viewBox="0 0 26 27" fill="none" xmlns="http://www.w3.org/2000/svg">
<g clip-path="url(#clip0_4_257)">
<path d="M13 26.4995C20.1797 26.4995 26 20.6792 26 13.4995C26 6.31981 20.1797 0.499512 13 0.499512C5.8203 0.499512 0 6.31981 0 13.4995C0 20.6792 5.8203 26.4995 13 26.4995Z" fill="white"/>
<path d="M20.7672 14.5458V19.9054H17.6598V14.905C17.6598 13.6494 17.2112 12.792 16.0861 12.792C15.2275 12.792 14.7174 13.3692 14.4922 13.9282C14.4104 14.1279 14.3893 14.4053 14.3893 14.6855V19.9052H11.2817C11.2817 19.9052 11.3234 11.4361 11.2817 10.5594H14.3895V11.8838C14.3833 11.8942 14.3745 11.9044 14.3689 11.9144H14.3895V11.8838C14.8025 11.2484 15.5389 10.34 17.1901 10.34C19.2345 10.34 20.7672 11.6757 20.7672 14.5458ZM8.03088 6.05444C6.9679 6.05444 6.27246 6.7522 6.27246 7.66896C6.27246 8.56624 6.94774 9.28417 7.9901 9.28417H8.01026C9.09409 9.28417 9.76799 8.56624 9.76799 7.66896C9.74736 6.7522 9.09409 6.05444 8.03088 6.05444ZM6.45716 19.9054H9.56359V10.5594H6.45716V19.9054Z" fill="black"/>
</g>
<defs>
<clipPath id="clip0_4_257">
<rect width="26" height="26" fill="white" transform="translate(0 0.5)"/>
</clipPath>
</defs>
</svg>
