<svg width="20" height="28" viewBox="0 0 20 28" fill="none" xmlns="http://www.w3.org/2000/svg">
<path d="M17.5671 25.5102L13.5001 16.1765L18.9309 13.8101C19.5184 13.5521 19.7873 12.868 19.5327 12.2789L18.3198 9.49548C17.9341 8.64727 17.0808 8.10983 16.1491 8.12836L13.5994 2.11148C13.2292 1.25782 12.5343 0.586681 11.6683 0.246331C10.8023 -0.0940195 9.83642 -0.0755706 8.98405 0.297602L2.93303 2.93425C2.07937 3.30446 1.40823 3.99932 1.06788 4.86532C0.727528 5.73132 0.745976 6.6972 1.11915 7.54957L3.66892 13.5664C3.02687 14.2458 2.85214 15.2427 3.22486 16.0999L4.43772 18.8834C4.69581 19.4709 5.37988 19.7397 5.96892 19.4852L11.3997 17.1188L15.4667 26.4525C15.5884 26.7396 15.82 26.966 16.1097 27.0813C16.5497 27.252 17.0492 27.141 17.3753 26.7999C17.7014 26.4588 17.79 25.9549 17.5997 25.523L17.5671 25.5102Z" fill="#FF013E"/>
</svg>
