<svg width="22" height="22" viewBox="0 0 22 22" fill="none" xmlns="http://www.w3.org/2000/svg">
<path fill-rule="evenodd" clip-rule="evenodd" d="M14.8138 6.57799C14.8138 8.71438 13.0819 10.4463 10.9456 10.4463C8.80916 10.4463 7.07727 8.71438 7.07727 6.57799C7.07727 4.4416 8.80916 2.70971 10.9456 2.70971C13.0819 2.70971 14.8138 4.4416 14.8138 6.57799ZM17.3927 6.57799C17.3927 10.1386 14.5062 13.0251 10.9456 13.0251C7.3849 13.0251 4.49842 10.1386 4.49842 6.57799C4.49842 3.01734 7.3849 0.130859 10.9456 0.130859C14.5062 0.130859 17.3927 3.01734 17.3927 6.57799ZM4.5303 13.3994C4.70861 13.2617 4.92468 13.1768 5.14983 13.1692C5.80885 13.1469 6.14347 13.3005 6.40087 13.5915C6.89752 14.153 6.57115 15.0647 5.987 15.5345C4.91306 16.3982 4.08269 17.5346 3.60392 18.8273H18.2866C17.8079 17.5348 16.9778 16.3987 15.9042 15.5351C15.3201 15.0652 14.9939 14.1533 15.4906 13.5917C15.7481 13.3006 16.0826 13.1471 16.7416 13.1696C16.9666 13.1773 17.1825 13.2622 17.3608 13.3998C19.4513 15.0143 20.894 17.3999 21.2435 20.1195C21.3343 20.8258 20.7483 21.4061 20.0361 21.4061H1.85437C1.14224 21.4061 0.556231 20.8258 0.646999 20.1195C0.996522 17.3996 2.43949 15.0139 4.5303 13.3994Z" fill="white"/>
</svg>
