<svg width="104" height="119" viewBox="0 0 104 119" fill="none" xmlns="http://www.w3.org/2000/svg">
<path d="M101.291 81.6518L90.5287 75.4836L95.3179 74.1964C96.0212 74.033 96.6844 73.7302 97.2679 73.3061C97.8513 72.8819 98.3432 72.345 98.7141 71.7273C99.085 71.1097 99.3274 70.4239 99.4268 69.7109C99.5262 68.998 99.4806 68.2723 99.2927 67.5773C99.1048 66.8822 98.7785 66.232 98.3332 65.6653C97.8879 65.0986 97.3327 64.627 96.7007 64.2787C96.0687 63.9304 95.3728 63.7124 94.6545 63.6379C93.9362 63.5633 93.2102 63.6336 92.5197 63.8446L77.345 67.9209L62.7622 59.5L77.345 51.0791L92.5197 55.1555H93.9188C95.346 55.3404 96.7884 54.9526 97.9287 54.0775C99.069 53.2024 99.8139 51.9116 99.9995 50.4891C100.185 49.0666 99.796 47.6288 98.918 46.4922C98.04 45.3556 96.745 44.6131 95.3179 44.4282L90.5287 43.4091L101.291 37.2409C101.906 36.8887 102.445 36.4193 102.878 35.8594C103.31 35.2995 103.628 34.6602 103.813 33.9778C103.998 33.2955 104.046 32.5835 103.955 31.8826C103.864 31.1817 103.635 30.5055 103.282 29.8927C102.929 29.2799 102.458 28.7425 101.896 28.3111C101.334 27.8798 100.693 27.5629 100.008 27.3786C99.3236 27.1943 98.6094 27.1462 97.9062 27.2371C97.203 27.328 96.5246 27.556 95.9098 27.9082L84.2866 34.6664L85.9009 28.7127C86.1126 28.0245 86.1832 27.3008 86.1083 26.5849C86.0335 25.8689 85.8148 25.1753 85.4654 24.5453C85.1159 23.9154 84.6428 23.362 84.0743 22.9181C83.5058 22.4742 82.8534 22.149 82.1561 21.9617C81.4588 21.7744 80.7308 21.729 80.0155 21.8281C79.3001 21.9272 78.6122 22.1688 77.9925 22.5385C77.3728 22.9082 76.8342 23.3984 76.4086 23.98C75.983 24.5616 75.6793 25.2226 75.5154 25.9236L71.1029 42.0145L57.3811 50.2209V33.4327L68.52 22.33C69.5222 21.3251 70.0848 19.9656 70.0848 18.5486C70.0848 17.1316 69.5222 15.7722 68.52 14.7673C68.0197 14.2645 67.4246 13.8655 66.7688 13.5932C66.1131 13.3209 65.4098 13.1807 64.6994 13.1807C63.989 13.1807 63.2857 13.3209 62.63 13.5932C61.9742 13.8655 61.3791 14.2645 60.8788 14.7673L57.3811 18.2536V5.86364C57.3811 4.44111 56.8142 3.07685 55.805 2.07097C54.7959 1.0651 53.4272 0.5 52 0.5C50.5728 0.5 49.2041 1.0651 48.195 2.07097C47.1858 3.07685 46.6189 4.44111 46.6189 5.86364V19.1118L42.2602 14.7673C41.76 14.2645 41.1648 13.8655 40.5091 13.5932C39.8533 13.3209 39.15 13.1807 38.4396 13.1807C37.7292 13.1807 37.0259 13.3209 36.3702 13.5932C35.7144 13.8655 35.1193 14.2645 34.619 14.7673C33.6168 15.7722 33.0542 17.1316 33.0542 18.5486C33.0542 19.9656 33.6168 21.3251 34.619 22.33L46.6189 34.2909V50.3818L32.7895 42.2291L28.377 26.1382C28.2131 25.4371 27.9093 24.7761 27.4838 24.1945C27.0582 23.6129 26.5195 23.1227 25.8999 22.753C25.2802 22.3833 24.5922 22.1417 23.8769 22.0426C23.1616 21.9435 22.4336 21.989 21.7363 22.1763C21.039 22.3635 20.3866 22.6888 19.8181 23.1327C19.2495 23.5765 18.7764 24.1299 18.427 24.7599C18.0775 25.3898 17.8589 26.0835 17.7841 26.7994C17.7092 27.5154 17.7797 28.239 17.9914 28.9273L19.7134 34.6664L8.09019 28.0155C7.4754 27.6633 6.79703 27.4352 6.09383 27.3444C5.39062 27.2535 4.67635 27.3016 3.99178 27.4859C3.30722 27.6702 2.66577 27.987 2.10407 28.4184C1.54236 28.8498 1.0714 29.3872 0.718076 30C0.364748 30.6128 0.135972 31.289 0.0448096 31.9899C-0.0463527 32.6908 0.00188382 33.4028 0.186766 34.0851C0.560153 35.4632 1.46746 36.6369 2.70908 37.3482L13.4713 43.4091L8.95117 44.8036C7.52401 44.9886 6.229 45.731 5.35104 46.8677C4.47308 48.0043 4.08407 49.442 4.26961 50.8645C4.45514 52.2871 5.2 53.5779 6.34035 54.453C7.48069 55.3281 8.9231 55.7158 10.3503 55.5309H11.7493L26.9241 51.4545L41.2378 59.5L26.655 67.9209L11.4803 63.8446C10.7683 63.581 10.0083 63.4707 9.25049 63.5209C8.49264 63.5711 7.75403 63.7806 7.08324 64.1357C6.41244 64.4907 5.82466 64.9833 5.35854 65.5811C4.89242 66.1788 4.55853 66.8681 4.37882 67.6036C4.19911 68.3392 4.17766 69.1044 4.31587 69.8488C4.45408 70.5932 4.74883 71.3 5.18073 71.9227C5.61262 72.5455 6.17189 73.07 6.82174 73.4619C7.47159 73.8538 8.19731 74.1041 8.95117 74.1964L13.7403 75.4836L2.97814 81.6518C1.73651 82.3631 0.829207 83.5368 0.455821 84.9149C0.0824346 86.293 0.273553 87.7624 0.987131 89C1.70071 90.2376 2.8783 91.142 4.26084 91.5141C5.64338 91.8863 7.11762 91.6958 8.35924 90.9846L19.7134 84.3336L18.099 90.2873C17.8857 90.9738 17.813 91.6962 17.8853 92.4113C17.9575 93.1264 18.1732 93.8198 18.5196 94.4502C18.8659 95.0806 19.3358 95.6352 19.9014 96.081C20.467 96.5268 21.1167 96.8548 21.812 97.0455C22.2769 97.0982 22.7462 97.0982 23.2111 97.0455C24.4259 97.0869 25.6191 96.7172 26.5962 95.9965C27.5733 95.2758 28.2769 94.2465 28.5922 93.0764L33.0047 76.9855L46.6189 68.7791V85.5673L35.48 96.67C34.4778 97.6749 33.9152 99.0344 33.9152 100.451C33.9152 101.868 34.4778 103.228 35.48 104.233C35.9784 104.74 36.5727 105.143 37.2285 105.419C37.8843 105.695 38.5886 105.839 39.3006 105.842C40.0126 105.839 40.7168 105.695 41.3727 105.419C42.0285 105.143 42.6228 104.74 43.1212 104.233L46.6189 100.746V113.136C46.6189 114.559 47.1858 115.923 48.195 116.929C49.2041 117.935 50.5728 118.5 52 118.5C53.4272 118.5 54.7959 117.935 55.805 116.929C56.8142 115.923 57.3811 114.559 57.3811 113.136V99.8882L61.7398 104.233C62.24 104.735 62.8352 105.134 63.4909 105.407C64.1467 105.679 64.85 105.819 65.5604 105.819C66.2708 105.819 66.9741 105.679 67.6298 105.407C68.2856 105.134 68.8807 104.735 69.381 104.233C70.3832 103.228 70.9457 101.868 70.9457 100.451C70.9457 99.0344 70.3832 97.6749 69.381 96.67L57.3811 84.7091V68.6182L71.2105 76.61L75.623 92.7009C75.9384 93.8711 76.6419 94.9003 77.619 95.621C78.5961 96.3418 79.7893 96.7115 81.0041 96.67C81.469 96.7227 81.9384 96.7227 82.4032 96.67C83.0903 96.4896 83.7347 96.1753 84.2993 95.7453C84.8638 95.3153 85.3374 94.7782 85.6926 94.1648C86.0478 93.5515 86.2776 92.8741 86.3688 92.1717C86.46 91.4694 86.4107 90.756 86.2238 90.0727L84.2866 84.3336L95.8022 90.9846C96.417 91.3367 97.0953 91.5648 97.7985 91.6556C98.5017 91.7465 99.216 91.6984 99.9006 91.5141C100.585 91.3299 101.227 91.013 101.788 90.5816C102.35 90.1502 102.821 89.6128 103.174 89C103.528 88.3872 103.756 87.711 103.848 87.0101C103.939 86.3092 103.89 85.5972 103.706 84.9149C103.521 84.2326 103.203 83.5932 102.77 83.0333C102.337 82.4734 101.798 82.004 101.183 81.6518H101.291Z" fill="white"/>
</svg>
