<svg width="106" height="104" viewBox="0 0 106 104" fill="none" xmlns="http://www.w3.org/2000/svg">
<path d="M48.5844 15.0119C49.2123 15.0123 49.8341 14.8889 50.4142 14.6487C50.9944 14.4086 51.5215 14.0565 51.9655 13.6126C52.4095 13.1686 52.7616 12.6414 53.0017 12.0613C53.2418 11.4811 53.3652 10.8594 53.3649 10.2315V5.45107C53.3649 4.18323 52.8612 2.96731 51.9647 2.07081C51.0682 1.1743 49.8523 0.670654 48.5844 0.670654C47.3166 0.670654 46.1007 1.1743 45.2042 2.07081C44.3077 2.96731 43.804 4.18323 43.804 5.45107V10.2315C43.8037 10.8594 43.9271 11.4811 44.1672 12.0613C44.4073 12.6414 44.7594 13.1686 45.2034 13.6126C45.6474 14.0565 46.1745 14.4086 46.7546 14.6487C47.3348 14.8889 47.9566 15.0123 48.5844 15.0119ZM15.1215 48.4748C15.1219 47.847 14.9985 47.2252 14.7584 46.645C14.5183 46.0649 14.1661 45.5377 13.7222 45.0938C13.2782 44.6498 12.7511 44.2977 12.1709 44.0576C11.5908 43.8175 10.969 43.694 10.3411 43.6944H5.56069C4.29284 43.6944 3.07693 44.1981 2.18042 45.0946C1.28392 45.9911 0.780273 47.207 0.780273 48.4748C0.780273 49.7427 1.28392 50.9586 2.18042 51.8551C3.07693 52.7516 4.29284 53.2552 5.56069 53.2552H10.3411C10.969 53.2556 11.5908 53.1322 12.1709 52.8921C12.7511 52.652 13.2782 52.2999 13.7222 51.8559C14.1661 51.4119 14.5183 50.8848 14.7584 50.3046C14.9985 49.7245 15.1219 49.1027 15.1215 48.4748ZM18.1606 72.1388L14.7809 75.5186C13.8845 76.415 13.3809 77.6308 13.3809 78.8985C13.3809 80.1662 13.8845 81.382 14.7809 82.2784C15.6773 83.1748 16.8931 83.6784 18.1608 83.6784C19.4285 83.6784 20.6443 83.1748 21.5407 82.2784L24.9204 78.8986C25.8168 78.0022 26.3204 76.7865 26.3204 75.5187C26.3204 74.251 25.8168 73.0352 24.9204 72.1388C24.024 71.2424 22.8082 70.7388 21.5405 70.7388C20.2728 70.7388 19.057 71.2424 18.1606 72.1388ZM18.1606 24.8108C18.6045 25.2547 19.1314 25.6067 19.7113 25.847C20.2913 26.0872 20.9128 26.2108 21.5405 26.2108C22.1682 26.2108 22.7898 26.0872 23.3697 25.847C23.9496 25.6067 24.4766 25.2547 24.9204 24.8108C25.3643 24.3669 25.7164 23.84 25.9566 23.2601C26.1968 22.6802 26.3204 22.0586 26.3204 21.4309C26.3204 20.8032 26.1968 20.1816 25.9566 19.6017C25.7164 19.0218 25.3643 18.4949 24.9204 18.051L21.5407 14.6713C20.6443 13.7748 19.4285 13.2712 18.1608 13.2712C16.8931 13.2712 15.6773 13.7747 14.7809 14.6711C13.8844 15.5675 13.3808 16.7833 13.3808 18.051C13.3808 19.3187 13.8843 20.5345 14.7807 21.4309L18.1606 24.8108ZM75.6284 26.2115C76.2562 26.2122 76.878 26.0888 77.458 25.8484C78.038 25.6081 78.5648 25.2554 79.0081 24.8108L82.3879 21.431C83.2843 20.5346 83.7879 19.3189 83.7879 18.0511C83.7879 16.7834 83.2843 15.5677 82.3879 14.6713C81.4915 13.7748 80.2757 13.2713 79.008 13.2713C77.7403 13.2713 76.5245 13.7748 75.6281 14.6713L72.2483 18.051C71.58 18.7196 71.1248 19.5713 70.9405 20.4984C70.7561 21.4256 70.8508 22.3866 71.2125 23.26C71.5742 24.1334 72.1868 24.8799 72.9727 25.4052C73.7587 25.9305 74.6827 26.211 75.6281 26.2112L75.6284 26.2115ZM58.1453 50.865C58.1449 51.4929 58.2683 52.1147 58.5084 52.6948C58.7485 53.275 59.1007 53.8021 59.5446 54.2461C59.9886 54.6901 60.5157 55.0422 61.0959 55.2823C61.676 55.5224 62.2978 55.6458 62.9257 55.6455H86.8278C90.63 55.6413 94.2754 54.129 96.964 51.4404C99.6526 48.7518 101.165 45.1065 101.169 41.3042C101.169 40.0364 100.665 38.8204 99.7689 37.9239C98.8724 37.0274 97.6564 36.5238 96.3886 36.5238C95.1208 36.5238 93.9048 37.0274 93.0083 37.9239C92.1118 38.8204 91.6082 40.0364 91.6082 41.3042C91.5915 42.5669 91.0825 43.7731 90.1896 44.666C89.2967 45.5589 88.0904 46.0679 86.8278 46.0846H62.9257C62.2978 46.0843 61.676 46.2077 61.0959 46.4478C60.5157 46.6879 59.9886 47.04 59.5446 47.484C59.1007 47.9279 58.7485 48.4551 58.5084 49.0352C58.2683 49.6154 58.1449 50.2372 58.1453 50.865ZM91.6082 65.2063H67.7061C66.4383 65.2063 65.2223 65.7099 64.3258 66.6064C63.4293 67.5029 62.9257 68.7189 62.9257 69.9867C62.9257 71.2545 63.4293 72.4705 64.3258 73.367C65.2223 74.2635 66.4383 74.7671 67.7061 74.7671H91.6082C92.876 74.7671 94.092 75.2708 94.9885 76.1673C95.885 77.0638 96.3886 78.2797 96.3886 79.5475C96.3886 80.8154 95.885 82.0313 94.9885 82.9278C94.092 83.8243 92.876 84.3279 91.6082 84.3279C90.3403 84.3279 89.1244 84.8316 88.2279 85.7281C87.3314 86.6246 86.8278 87.8405 86.8278 89.1084C86.8278 90.3762 87.3314 91.5921 88.2279 92.4886C89.1244 93.3851 90.3403 93.8888 91.6082 93.8888C95.4117 93.8888 99.0595 92.3778 101.749 89.6883C104.438 86.9988 105.949 83.3511 105.949 79.5475C105.949 75.744 104.438 72.0962 101.749 69.4067C99.0595 66.7172 95.4117 65.2063 91.6082 65.2063ZM39.0236 84.3279C38.0781 84.3279 37.1539 84.6083 36.3677 85.1336C35.5816 85.6589 34.9689 86.4055 34.6071 87.279C34.2453 88.1525 34.1506 89.1137 34.335 90.041C34.5195 90.9683 34.9748 91.8201 35.6433 92.4886C36.3119 93.1572 37.1637 93.6125 38.091 93.7969C39.0183 93.9814 39.9795 93.8867 40.853 93.5249C41.7265 93.1631 42.4731 92.5504 42.9984 91.7642C43.5237 90.9781 43.804 90.0538 43.804 89.1084C43.804 87.8405 43.3004 86.6246 42.4039 85.7281C41.5074 84.8316 40.2915 84.3279 39.0236 84.3279ZM67.7061 84.3279H58.1453C56.8774 84.3279 55.6615 84.8316 54.765 85.7281C53.8685 86.6246 53.3649 87.8405 53.3649 89.1084C53.3649 90.3762 53.8685 91.5921 54.765 92.4886C55.6615 93.3851 56.8774 93.8888 58.1453 93.8888H67.7061C68.9688 93.9055 70.175 94.4145 71.0679 95.3074C71.9608 96.2003 72.4698 97.4065 72.4865 98.6692C72.4865 99.937 72.9902 101.153 73.8867 102.049C74.7832 102.946 75.9991 103.45 77.2669 103.45C78.5348 103.45 79.7507 102.946 80.6472 102.049C81.5437 101.153 82.0474 99.937 82.0474 98.6692C82.0432 94.8669 80.5309 91.2216 77.8423 88.533C75.1537 85.8444 71.5084 84.3321 67.7061 84.3279ZM48.5844 65.2063C44.147 65.2063 39.8913 63.4435 36.7535 60.3058C33.6158 57.168 31.853 52.9123 31.853 48.4748C31.853 44.0374 33.6158 39.7817 36.7535 36.6439C39.8913 33.5061 44.147 31.7434 48.5844 31.7434C52.3954 31.7191 56.0948 33.0287 59.0416 35.4454C59.5277 35.8432 60.0874 36.1414 60.6888 36.3228C61.2902 36.5043 61.9214 36.5654 62.5464 36.5028C63.1714 36.4402 63.778 36.255 64.3314 35.9578C64.8848 35.6606 65.3742 35.2573 65.7717 34.7709C66.1692 34.2845 66.4669 33.7245 66.6479 33.123C66.8288 32.5215 66.8894 31.8902 66.8263 31.2652C66.7631 30.6403 66.5775 30.0339 66.2798 29.4807C65.9822 28.9275 65.5785 28.4384 65.0918 28.0414C60.4417 24.2219 54.602 22.1492 48.5844 22.1825C41.6113 22.1825 34.9237 24.9526 29.993 29.8834C25.0622 34.8141 22.2921 41.5017 22.2921 48.4748C22.2921 55.448 25.0622 62.1355 29.993 67.0663C34.9237 71.997 41.6113 74.7671 48.5844 74.7671C49.8523 74.7671 51.0682 74.2635 51.9647 73.367C52.8612 72.4705 53.3649 71.2545 53.3649 69.9867C53.3649 68.7189 52.8612 67.5029 51.9647 66.6064C51.0682 65.7099 49.8523 65.2063 48.5844 65.2063Z" fill="white"/>
</svg>
