<svg width="54" height="55" viewBox="0 0 54 55" fill="none" xmlns="http://www.w3.org/2000/svg">
<path fill-rule="evenodd" clip-rule="evenodd" d="M26.9997 0.833336C12.2721 0.833336 0.333066 12.7724 0.333066 27.5C0.323603 31.9909 1.47163 36.4086 3.6664 40.3267C4.52062 41.9347 5.55868 43.4381 6.75973 44.8067C11.8259 50.7124 19.2187 54.1109 26.9997 54.1109C34.7807 54.1109 42.1736 50.7124 47.2397 44.8067C48.4408 43.4381 49.4788 41.9347 50.3331 40.3267C52.5278 36.4086 53.6759 31.9909 53.6664 27.5C53.6664 12.7724 41.7273 0.833336 26.9997 0.833336ZM34.1197 47.6067C25.7018 50.591 16.3159 48.0157 10.5997 41.1533C20.2403 33.6343 33.7591 33.6343 43.3997 41.1533C40.9429 44.0997 37.737 46.3291 34.1197 47.6067ZM48.1464 30.1667H45.9064C44.4336 30.1667 43.2397 28.9728 43.2397 27.5C43.2397 26.0272 44.4336 24.8333 45.9064 24.8333H48.1731C47.7118 21.0495 46.2275 17.4631 43.8797 14.46L43.0797 15.26C42.5809 15.769 41.8991 16.057 41.1864 16.06C40.103 16.0663 39.1235 15.4165 38.7081 14.416C38.2926 13.4154 38.5238 12.2629 39.2931 11.5L40.0131 10.7267C37.0236 8.35932 33.4475 6.84781 29.6664 6.35334V8.83334C29.6664 10.3061 28.4725 11.5 26.9997 11.5C25.527 11.5 24.3331 10.3061 24.3331 8.83334V6.32667C20.5735 6.78297 17.0075 8.24808 14.0131 10.5667L14.9464 11.5C15.9994 12.5457 16.0054 14.247 14.9597 15.3C13.9141 16.353 12.2128 16.359 11.1597 15.3133L10.2264 14.38C7.83408 17.3981 6.31255 21.0129 5.8264 24.8333H8.33307C9.80583 24.8333 10.9997 26.0272 10.9997 27.5C10.9997 28.9728 9.80583 30.1667 8.33307 30.1667H5.85307C6.11774 32.3917 6.75793 34.5557 7.7464 36.5667C12.8645 32.6897 19.039 30.458 25.4531 30.1667L32.7064 18.1933C33.1256 17.2658 34.0363 16.6578 35.0537 16.6262C36.0711 16.5946 37.0177 17.145 37.4937 18.0448C37.9696 18.9446 37.8918 20.0368 37.2931 20.86L31.5064 30.4867C36.8613 31.2519 41.9349 33.362 46.2531 36.62C47.2473 34.5925 47.8876 32.41 48.1464 30.1667Z" fill="white"/>
</svg>
