<svg width="26" height="27" viewBox="0 0 26 27" fill="none" xmlns="http://www.w3.org/2000/svg">
<g clip-path="url(#clip0_4_243)">
<path d="M12.9999 26.4998C20.1795 26.4998 25.9998 20.6795 25.9998 13.4999C25.9998 6.32025 20.1795 0.5 12.9999 0.5C5.82025 0.5 0 6.32025 0 13.4999C0 20.6795 5.82025 26.4998 12.9999 26.4998Z" fill="white"/>
<path d="M20.9622 9.84265C20.4051 10.0897 19.8058 10.2568 19.1773 10.3314C19.819 9.94693 20.3114 9.33863 20.5439 8.6126C19.9434 8.96878 19.2781 9.22716 18.5706 9.36643C18.0038 8.76276 17.1962 8.3855 16.302 8.3855C14.5862 8.3855 13.1946 9.77707 13.1946 11.4928C13.1946 11.7364 13.2222 11.9735 13.2755 12.201C10.693 12.0715 8.40327 10.8345 6.87057 8.95394C6.60315 9.41278 6.44974 9.94693 6.44974 10.5163C6.44974 11.5941 6.99872 12.5456 7.83204 13.1027C7.32292 13.0867 6.84346 12.947 6.42471 12.7136C6.42448 12.7268 6.42448 12.74 6.42448 12.753C6.42448 14.2586 7.49602 15.5144 8.91726 15.7996C8.65678 15.871 8.38171 15.9088 8.09877 15.9088C7.89808 15.9088 7.70366 15.8895 7.5141 15.8534C7.90944 17.0876 9.05676 17.9861 10.4168 18.0113C9.35315 18.8449 8.01349 19.3415 6.55726 19.3415C6.30699 19.3415 6.05903 19.3269 5.81641 19.2979C7.19083 20.1799 8.82456 20.6941 10.5793 20.6941C16.2948 20.6941 19.4204 15.9593 19.4204 11.8527C19.4204 11.7181 19.4174 11.5839 19.4114 11.4509C20.019 11.0129 20.5457 10.4658 20.9622 9.84265Z" fill="black"/>
</g>
<defs>
<clipPath id="clip0_4_243">
<rect width="26" height="26" fill="white" transform="translate(0 0.5)"/>
</clipPath>
</defs>
</svg>
