<svg width="92" height="87" viewBox="0 0 92 87" fill="none" xmlns="http://www.w3.org/2000/svg">
<path d="M5.73159 29.5238C6.67707 29.5238 7.60131 29.2434 8.38745 28.7181C9.17358 28.1928 9.7863 27.4462 10.1481 26.5727C10.5099 25.6992 10.6046 24.738 10.4202 23.8107C10.2357 22.8834 9.78041 22.0316 9.11185 21.3631C8.4433 20.6945 7.59151 20.2392 6.6642 20.0548C5.73689 19.8703 4.77571 19.965 3.9022 20.3268C3.0287 20.6886 2.2821 21.3013 1.75682 22.0875C1.23154 22.8736 0.951172 23.7979 0.951172 24.7433C0.951172 26.0112 1.45482 27.2271 2.35132 28.1236C3.24783 29.0201 4.46374 29.5238 5.73159 29.5238ZM24.8533 29.5238H58.3162C62.1197 29.5238 65.7675 28.0128 68.457 25.3233C71.1465 22.6338 72.6574 18.986 72.6574 15.1825C72.6574 11.379 71.1465 7.73121 68.457 5.0417C65.7675 2.3522 62.1197 0.841248 58.3162 0.841248C55.8013 0.851652 53.3316 1.51024 51.1455 2.75341C50.5978 3.06572 50.1172 3.48331 49.7315 3.98213C49.3458 4.48095 49.0626 5.05115 48.8982 5.65989C48.7338 6.26863 48.6914 6.90388 48.7736 7.52905C48.8557 8.15423 49.0607 8.75698 49.3768 9.30259C49.6931 9.84637 50.1136 10.3224 50.6142 10.7033C51.1148 11.0843 51.6857 11.3627 52.2941 11.5226C52.9026 11.6824 53.5366 11.7207 54.1598 11.635C54.783 11.5494 55.3832 11.3416 55.926 11.0235C56.6614 10.6278 57.4812 10.4147 58.3162 10.4021C59.584 10.4021 60.7999 10.9057 61.6964 11.8022C62.5929 12.6987 63.0966 13.9147 63.0966 15.1825C63.0966 16.4503 62.5929 17.6663 61.6964 18.5628C60.7999 19.4593 59.584 19.9629 58.3162 19.9629H24.8533C23.5854 19.9629 22.3695 20.4666 21.473 21.3631C20.5765 22.2596 20.0728 23.4755 20.0728 24.7433C20.0728 26.0112 20.5765 27.2271 21.473 28.1236C22.3695 29.0201 23.5854 29.5238 24.8533 29.5238ZM5.73159 48.6454H39.1945C40.4624 48.6454 41.6783 48.1418 42.5748 47.2453C43.4713 46.3488 43.9749 45.1328 43.9749 43.865C43.9749 42.5972 43.4713 41.3812 42.5748 40.4847C41.6783 39.5882 40.4624 39.0846 39.1945 39.0846H5.73159C4.46374 39.0846 3.24783 39.5882 2.35132 40.4847C1.45482 41.3812 0.951172 42.5972 0.951172 43.865C0.951172 45.1328 1.45482 46.3488 2.35132 47.2453C3.24783 48.1418 4.46374 48.6454 5.73159 48.6454ZM86.9987 29.5238C87.9442 29.5238 88.8684 29.2434 89.6545 28.7181C90.4407 28.1928 91.0534 27.4462 91.4152 26.5727C91.777 25.6992 91.8717 24.738 91.6872 23.8107C91.5028 22.8834 91.0475 22.0316 90.3789 21.3631C89.7104 20.6945 88.8586 20.2392 87.9313 20.0548C87.004 19.8703 86.0428 19.965 85.1693 20.3268C84.2958 20.6886 83.5492 21.3013 83.0239 22.0875C82.4986 22.8736 82.2183 23.7979 82.2183 24.7433C82.2183 26.0112 82.7219 27.2271 83.6184 28.1236C84.5149 29.0201 85.7308 29.5238 86.9987 29.5238ZM77.4378 39.0846H58.3162C57.0483 39.0846 55.8324 39.5882 54.9359 40.4847C54.0394 41.3812 53.5358 42.5972 53.5358 43.865C53.5358 45.1328 54.0394 46.3488 54.9359 47.2453C55.8324 48.1418 57.0483 48.6454 58.3162 48.6454H77.4378C78.7057 48.6454 79.9216 49.1491 80.8181 50.0456C81.7146 50.9421 82.2183 52.158 82.2183 53.4258C82.2183 54.6937 81.7146 55.9096 80.8181 56.8061C79.9216 57.7026 78.7057 58.2063 77.4378 58.2063C76.17 58.2063 74.9541 58.7099 74.0576 59.6064C73.1611 60.5029 72.6574 61.7188 72.6574 62.9867C72.6574 64.2545 73.1611 65.4704 74.0576 66.3669C74.9541 67.2634 76.17 67.7671 77.4378 67.7671C81.2414 67.7671 84.8891 66.2561 87.5786 63.5666C90.2682 60.8771 91.7791 57.2294 91.7791 53.4258C91.7791 49.6223 90.2682 45.9745 87.5786 43.285C84.8891 40.5955 81.2414 39.0846 77.4378 39.0846ZM48.7553 58.2063H29.6337C28.3658 58.2063 27.1499 58.7099 26.2534 59.6064C25.3569 60.5029 24.8533 61.7188 24.8533 62.9867C24.8533 64.2545 25.3569 65.4704 26.2534 66.3669C27.1499 67.2634 28.3658 67.7671 29.6337 67.7671H48.7553C50.0232 67.7671 51.2391 68.2707 52.1356 69.1672C53.0321 70.0637 53.5358 71.2797 53.5358 72.5475C53.5358 73.8153 53.0321 75.0313 52.1356 75.9278C51.2391 76.8243 50.0232 77.3279 48.7553 77.3279C47.9203 77.3153 47.1006 77.1022 46.3651 76.7065C45.821 76.3606 45.2126 76.1283 44.5764 76.0237C43.9402 75.9191 43.2895 75.9442 42.6632 76.0976C42.037 76.251 41.4483 76.5294 40.9325 76.9163C40.4167 77.3031 39.9845 77.7902 39.6618 78.3484C39.3392 78.9066 39.1328 79.5243 39.055 80.1643C38.9773 80.8043 39.0298 81.4535 39.2094 82.0727C39.3891 82.6919 39.6921 83.2683 40.1003 83.7674C40.5085 84.2664 41.0134 84.6777 41.5847 84.9766C43.7708 86.2198 46.2405 86.8783 48.7553 86.8888C52.5589 86.8888 56.2066 85.3778 58.8961 82.6883C61.5856 79.9988 63.0966 76.351 63.0966 72.5475C63.0966 68.744 61.5856 65.0962 58.8961 62.4067C56.2066 59.7172 52.5589 58.2063 48.7553 58.2063ZM10.512 58.2063H5.73159C4.46374 58.2063 3.24783 58.7099 2.35132 59.6064C1.45482 60.5029 0.951172 61.7188 0.951172 62.9867C0.951172 64.2545 1.45482 65.4704 2.35132 66.3669C3.24783 67.2634 4.46374 67.7671 5.73159 67.7671H10.512C11.7799 67.7671 12.9958 67.2634 13.8923 66.3669C14.7888 65.4704 15.2924 64.2545 15.2924 62.9867C15.2924 61.7188 14.7888 60.5029 13.8923 59.6064C12.9958 58.7099 11.7799 58.2063 10.512 58.2063Z" fill="white"/>
</svg>
