<svg width="97" height="92" viewBox="0 0 97 92" fill="none" xmlns="http://www.w3.org/2000/svg">
<path d="M45.9996 73.5834H23.0829C21.8674 73.5834 20.7016 74.0663 19.842 74.9258C18.9825 75.7854 18.4996 76.9512 18.4996 78.1667C18.4996 79.3823 18.9825 80.5481 19.842 81.4076C20.7016 82.2672 21.8674 82.7501 23.0829 82.7501H45.9996C47.2102 82.7661 48.3667 83.2541 49.2228 84.1102C50.0789 84.9663 50.5669 86.1228 50.5829 87.3334C50.5829 88.549 51.0658 89.7148 51.9254 90.5743C52.7849 91.4338 53.9507 91.9167 55.1663 91.9167C56.3818 91.9167 57.5476 91.4338 58.4072 90.5743C59.2667 89.7148 59.7496 88.549 59.7496 87.3334C59.7456 83.6879 58.2957 80.1928 55.7179 77.6151C53.1402 75.0373 49.6451 73.5874 45.9996 73.5834ZM55.1663 27.7501C56.0728 27.7501 56.9589 27.4813 57.7126 26.9776C58.4664 26.474 59.0538 25.7582 59.4007 24.9207C59.7476 24.0832 59.8384 23.1616 59.6615 22.2726C59.4847 21.3835 59.0482 20.5668 58.4072 19.9258C57.7662 19.2848 56.9495 18.8483 56.0604 18.6715C55.1713 18.4946 54.2498 18.5854 53.4123 18.9323C52.5748 19.2792 51.859 19.8666 51.3554 20.6204C50.8517 21.3741 50.5829 22.2602 50.5829 23.1667C50.5829 24.3823 51.0658 25.5481 51.9254 26.4076C52.7849 27.2672 53.9507 27.7501 55.1663 27.7501ZM73.4996 27.7501H82.6663C86.3118 27.7461 89.8068 26.2962 92.3846 23.7184C94.9623 21.1406 96.4123 17.6456 96.4163 14.0001C96.4163 12.7845 95.9334 11.6187 95.0738 10.7592C94.2143 9.89962 93.0485 9.41673 91.8329 9.41673C90.6174 9.41673 89.4516 9.89962 88.592 10.7592C87.7325 11.6187 87.2496 12.7845 87.2496 14.0001C87.2336 15.2107 86.7456 16.3672 85.8895 17.2233C85.0334 18.0794 83.8769 18.5674 82.6663 18.5834H73.4996C72.284 18.5834 71.1182 19.0663 70.2587 19.9258C69.3991 20.7854 68.9163 21.9512 68.9163 23.1667C68.9163 24.3823 69.3991 25.5481 70.2587 26.4076C71.1182 27.2672 72.284 27.7501 73.4996 27.7501ZM82.6663 55.2501H72.7602C75.3904 51.1354 77.1769 46.5392 78.0158 41.7283C78.1501 40.9459 78.079 40.142 77.8094 39.3954C77.5398 38.6487 77.0809 37.9848 76.4777 37.4687C75.8745 36.9526 75.1477 36.6019 74.3683 36.451C73.5889 36.3002 72.7837 36.3542 72.0315 36.6079C69.1976 37.5709 66.2249 38.0623 63.2319 38.0626C55.8746 38.0599 48.8187 35.1391 43.6122 29.9409C38.4056 24.7427 35.4734 17.6916 35.4588 10.3343C35.4897 8.72312 35.6393 7.11638 35.9064 5.52718C36.0261 4.74982 35.9435 3.95474 35.6667 3.21855C35.3899 2.48236 34.9281 1.82986 34.3259 1.32391C33.7238 0.817968 33.0014 0.475629 32.2285 0.329877C31.4556 0.184124 30.6582 0.239871 29.9131 0.491745C24.6 2.26417 19.7613 5.2256 15.7656 9.15053C11.7699 13.0755 8.72241 17.8604 6.85527 23.141C4.98814 28.4216 4.35056 34.0586 4.99109 39.6229C5.63161 45.1871 7.53335 50.5318 10.5515 55.2501H4.74959C3.53402 55.2501 2.36823 55.7329 1.50869 56.5925C0.649145 57.452 0.16626 58.6178 0.16626 59.8334C0.16626 61.049 0.649145 62.2148 1.50869 63.0743C2.36823 63.9338 3.53402 64.4167 4.74959 64.4167H27.6663C28.8818 64.4167 30.0476 63.9338 30.9072 63.0743C31.7667 62.2148 32.2496 61.049 32.2496 59.8334C32.2496 58.6178 31.7667 57.452 30.9072 56.5925C30.0476 55.7329 28.8818 55.2501 27.6663 55.2501H22.3061C19.3378 52.3702 17.0539 48.8607 15.6228 44.9804C14.1918 41.1001 13.6502 36.948 14.0379 32.8305C14.4256 28.713 15.7328 24.735 17.863 21.19C19.9932 17.6451 22.8921 14.6236 26.3458 12.3485C26.8785 21.7727 30.9961 30.6363 37.8545 37.1218C44.7129 43.6074 53.7926 47.2237 63.2319 47.2292C64.4396 47.2301 65.6466 47.1703 66.8484 47.0502C65.424 50.1171 63.4486 52.8965 61.0205 55.2501H45.9996C44.784 55.2501 43.6182 55.7329 42.7587 56.5925C41.8991 57.452 41.4163 58.6178 41.4163 59.8334C41.4163 61.049 41.8991 62.2148 42.7587 63.0743C43.6182 63.9338 44.784 64.4167 45.9996 64.4167H82.6663C83.8818 64.4167 85.0476 64.8996 85.9072 65.7591C86.7667 66.6187 87.2496 67.7845 87.2496 69.0001C87.2496 70.2156 86.7667 71.3814 85.9072 72.241C85.0476 73.1005 83.8818 73.5834 82.6663 73.5834C81.4507 73.5834 80.2849 74.0663 79.4254 74.9258C78.5658 75.7854 78.0829 76.9512 78.0829 78.1667C78.0829 79.3823 78.5658 80.5481 79.4254 81.4076C80.2849 82.2672 81.4507 82.7501 82.6663 82.7501C86.313 82.7501 89.8104 81.3014 92.389 78.7228C94.9676 76.1442 96.4163 72.6468 96.4163 69.0001C96.4163 65.3533 94.9676 61.856 92.389 59.2773C89.8104 56.6987 86.313 55.2501 82.6663 55.2501ZM3.00848 73.9504C2.4528 74.1823 1.94107 74.5078 1.49561 74.9129C0.649286 75.7854 0.172977 76.9512 0.16626 78.1667C0.158432 78.9215 0.339053 79.6663 0.691757 80.3336C1.04446 81.0009 1.5581 81.5697 2.18613 81.9884C2.81417 82.4071 3.53675 82.6625 4.2884 82.7314C5.04005 82.8003 5.79702 82.6805 6.49071 82.383C7.04587 82.1503 7.55749 81.8249 8.00376 81.4209C8.42989 80.9936 8.76683 80.4859 8.99502 79.9272C9.2232 79.3686 9.33806 78.7702 9.33293 78.1667C9.315 76.9534 8.84039 75.7915 8.00376 74.9126C7.35873 74.2776 6.54038 73.8475 5.65158 73.6763C4.76278 73.5051 3.84322 73.6005 3.00848 73.9504Z" fill="white"/>
</svg>
